<svg xmlns="http://www.w3.org/2000/svg" viewBox="0 0 280 210">{{$m := or .m 0.0}}
  <rect x="0" y="0" width="280" height="210" fill="#4ECBA8"/>
  <rect x="6" y="5" width="268" height="200" rx="26" ry="26" fill="#4ECBA8"/>
  <rect x="12" y="10" width="256" height="188" rx="12" ry="12" fill="#90e5c8"/>
  <ellipse cx="61" cy="100" rx="12" ry="7.5" fill="#53AF66" opacity="0.55"/>
  <ellipse cx="219" cy="100" rx="12" ry="7.5" fill="#53AF66" opacity="0.55"/>
  <circle cx="80" cy="78" r="12" fill="#1a1a1a"/>
  <circle cx="76.5" cy="74.5" r="3.2" fill="#e4e4e4"/>
  <circle cx="199" cy="78" r="12" fill="#1a1a1a"/>
  <circle cx="195.5" cy="74.5" r="3.2" fill="#e4e4e4"/>
  <path d="M 72.0 66.0 L 72.9 69.1 L 76.0 70.0 L 72.9 70.9 L 72.0 74.0 L 71.1 70.9 L 68.0 70.0 L 71.1 69.1 Z" fill="#e4e4e4"/>
  <path d="M 207.0 66.0 L 207.9 69.1 L 211.0 70.0 L 207.9 70.9 L 207.0 74.0 L 206.1 70.9 L 203.0 70.0 L 206.1 69.1 Z" fill="#e4e4e4"/>
  {{if eq $m 0.0}}
  <path d="M 116 111 Q 140 125 160 111" stroke="#1a1a1a" stroke-width="4" fill="none" stroke-linecap="round"/>
  {{else}}{{template "talkmouth" $m}}{{end}}
</svg>
