<svg xmlns="http://www.w3.org/2000/svg" viewBox="0 0 280 210">
  <rect x="0" y="0" width="280" height="210" fill="#4ECBA8"/>
  <rect x="6" y="5" width="268" height="200" rx="26" ry="26" fill="#4ECBA8"/>
  <rect x="12" y="10" width="256" height="188" rx="12" ry="12" fill="#90e5c8"/>
  <path d="M 80.0 78.0 L 80.2 78.1 L 80.4 78.3 L 80.4 78.6 L 80.2 79.0 L 79.8 79.2 L 79.3 79.3 L 78.7 79.2 L 78.2 78.8 L 77.8 78.1 L 77.6 77.3 L 77.8 76.4 L 78.3 75.5 L 79.2 74.9 L 80.3 74.5 L 81.6 74.6 L 82.8 75.1 L 83.8 76.1 L 84.5 77.5 L 84.6 79.1 L 84.2 80.7 L 83.2 82.2 L 81.7 83.2 L 79.8 83.7 L 77.8 83.6 L 75.9 82.7 L 74.3 81.2 L 73.3 79.2 L 73.1 76.8 L 73.7 74.4 L 75.1 72.3 L 77.2 70.8 L 79.8 70.0 L 82.5 70.2 L 85.2 71.3 L 87.4 73.3 L 88.8 76.0 L 89.2 79.1 L 88.5 82.2 L 86.8 85.0 L 84.2 87.1 L 80.9 88.2 L 77.3 88.2 L 73.9 86.9 L 71.1 84.5" stroke="#1a1a1a" stroke-width="3" fill="none" stroke-linecap="round"/>
  <path d="M 199.0 78.0 L 199.2 78.1 L 199.4 78.3 L 199.4 78.6 L 199.2 79.0 L 198.8 79.2 L 198.3 79.3 L 197.7 79.2 L 197.2 78.8 L 196.8 78.1 L 196.6 77.3 L 196.8 76.4 L 197.3 75.5 L 198.2 74.9 L 199.3 74.5 L 200.6 74.6 L 201.8 75.1 L 202.8 76.1 L 203.5 77.5 L 203.6 79.1 L 203.2 80.7 L 202.2 82.2 L 200.7 83.2 L 198.8 83.7 L 196.8 83.6 L 194.9 82.7 L 193.3 81.2 L 192.3 79.2 L 192.1 76.8 L 192.7 74.4 L 194.1 72.3 L 196.2 70.8 L 198.8 70.0 L 201.5 70.2 L 204.2 71.3 L 206.4 73.3 L 207.8 76.0 L 208.2 79.1 L 207.5 82.2 L 205.8 85.0 L 203.2 87.1 L 199.9 88.2 L 196.3 88.2 L 192.9 86.9 L 190.1 84.5" stroke="#1a1a1a" stroke-width="3" fill="none" stroke-linecap="round"/>
  <path d="M 128 116 q 6 -6 12 0 q 6 6 12 0" stroke="#1a1a1a" stroke-width="4" fill="none" stroke-linecap="round"/>
</svg>
