<svg xmlns="http://www.w3.org/2000/svg" viewBox="0 0 280 210">
  <rect x="0" y="0" width="280" height="210" fill="#4ECBA8"/>
  <rect x="6" y="5" width="268" height="200" rx="26" ry="26" fill="#4ECBA8"/>
  <rect x="12" y="10" width="256" height="188" rx="12" ry="12" fill="#90e5c8"/>
  <path d="M 80.0 65.0 L 83.1 73.8 L 92.4 74.0 L 84.9 79.6 L 87.6 88.5 L 80.0 83.2 L 72.4 88.5 L 75.1 79.6 L 67.6 74.0 L 76.9 73.8 Z" fill="#f4c531"/>
  <path d="M 199.0 65.0 L 202.1 73.8 L 211.4 74.0 L 203.9 79.6 L 206.6 88.5 L 199.0 83.2 L 191.4 88.5 L 194.1 79.6 L 186.6 74.0 L 195.9 73.8 Z" fill="#f4c531"/>
  <rect x="98" y="101" width="84" height="43" rx="20" ry="20" fill="#1a1a1a"/>
  <path d="M 99.67 113 A 20 20 0 0 1 118 101 L 162 101 A 20 20 0 0 1 180.33 113 Z" fill="#e4e4e4"/>
  <path d="M 99.67 113 L 180.33 113 A 20 20 0 0 1 182 121 L 182 124 A 20 20 0 0 1 162 144 L 118 144 A 20 20 0 0 1 98 124 L 98 121 A 20 20 0 0 1 99.67 113 Z" fill="#1a7848"/>
  <path d="M 116 144 A 24 8 0 0 1 164 144 Z" fill="#16ae81"/>
</svg>
