<svg xmlns="http://www.w3.org/2000/svg" viewBox="0 0 280 210">
  <rect x="0" y="0" width="280" height="210" fill="#4ECBA8"/>
  <rect x="6" y="5" width="268" height="200" rx="26" ry="26" fill="#4ECBA8"/>
  <rect x="12" y="10" width="256" height="188" rx="12" ry="12" fill="#90e5c8"/>
  <rect x="72" y="70" width="8" height="8" fill="#1a1a1a"/>
  <rect x="72" y="78" width="8" height="8" fill="#1a1a1a"/>
  <rect x="80" y="70" width="8" height="8" fill="#1a1a1a"/>
  <rect x="80" y="78" width="8" height="8" fill="#1a1a1a"/>
  <rect x="191" y="70" width="8" height="8" fill="#1a1a1a"/>
  <rect x="191" y="78" width="8" height="8" fill="#1a1a1a"/>
  <rect x="199" y="70" width="8" height="8" fill="#1a1a1a"/>
  <rect x="199" y="78" width="8" height="8" fill="#1a1a1a"/>
  <rect x="116" y="116" width="8" height="8" fill="#1a1a1a"/>
  <rect x="124" y="124" width="8" height="8" fill="#1a1a1a"/>
  <rect x="132" y="128" width="8" height="8" fill="#1a1a1a"/>
  <rect x="140" y="128" width="8" height="8" fill="#1a1a1a"/>
  <rect x="148" y="128" width="8" height="8" fill="#1a1a1a"/>
  <rect x="156" y="124" width="8" height="8" fill="#1a1a1a"/>
  <rect x="164" y="116" width="8" height="8" fill="#1a1a1a"/>
</svg>
