<svg xmlns="http://www.w3.org/2000/svg" viewBox="0 0 280 210">{{$m := or .m 0.0}}
  <rect x="0" y="0" width="280" height="210" fill="#4ECBA8"/>
  <rect x="6" y="5" width="268" height="200" rx="26" ry="26" fill="#4ECBA8"/>
  <rect x="12" y="10" width="256" height="188" rx="12" ry="12" fill="#90e5c8"/>
  <circle cx="80" cy="78" r="6.5" fill="#1a1a1a"/>
  <circle cx="199" cy="78" r="6.5" fill="#1a1a1a"/>
  {{if eq $m 0.0}}
  <path d="M 116 111 Q 140 131 160 111" stroke="#1a1a1a" stroke-width="4" fill="none" stroke-linecap="round"/>
  {{else if lt $m 0.3}}
  <rect x="106" y="106" width="68" height="12" rx="6" ry="6" fill="#1a1a1a"/>
  <path d="M 106.61 109.36 A 6.00 6.00 0 0 1 112.00 106.00 L 168.00 106.00 A 6.00 6.00 0 0 1 173.39 109.36 Z" fill="#e4e4e4"/>
  <path d="M 106.61 109.36 L 173.39 109.36 A 6.00 6.00 0 0 1 174.00 112.00 L 174.00 112.00 A 6.00 6.00 0 0 1 168.00 118.00 L 112.00 118.00 A 6.00 6.00 0 0 1 106.00 112.00 L 106.00 112.00 A 6.00 6.00 0 0 1 106.61 109.36 Z" fill="#1a7848"/>
  {{else if lt $m 0.5}}
  <rect x="106" y="106" width="68" height="18" rx="9" ry="9" fill="#1a1a1a"/>
  <path d="M 106.92 111.04 A 9.00 9.00 0 0 1 115.00 106.00 L 165.00 106.00 A 9.00 9.00 0 0 1 173.08 111.04 Z" fill="#e4e4e4"/>
  <path d="M 106.92 111.04 L 173.08 111.04 A 9.00 9.00 0 0 1 174.00 115.00 L 174.00 115.00 A 9.00 9.00 0 0 1 165.00 124.00 L 115.00 124.00 A 9.00 9.00 0 0 1 106.00 115.00 L 106.00 115.00 A 9.00 9.00 0 0 1 106.92 111.04 Z" fill="#1a7848"/>
  {{else if lt $m 0.7}}
  <rect x="106" y="106" width="68" height="24" rx="12" ry="12" fill="#1a1a1a"/>
  <path d="M 107.22 112.72 A 12.00 12.00 0 0 1 118.00 106.00 L 162.00 106.00 A 12.00 12.00 0 0 1 172.78 112.72 Z" fill="#e4e4e4"/>
  <path d="M 107.22 112.72 L 172.78 112.72 A 12.00 12.00 0 0 1 174.00 118.00 L 174.00 118.00 A 12.00 12.00 0 0 1 162.00 130.00 L 118.00 130.00 A 12.00 12.00 0 0 1 106.00 118.00 L 106.00 118.00 A 12.00 12.00 0 0 1 107.22 112.72 Z" fill="#1a7848"/>
  <path d="M 127.33 130.00 Q 140.00 121.36 152.67 130.00 Z" fill="#16ae81"/>
  {{else if lt $m 0.9}}
  <rect x="106" y="106" width="68" height="30" rx="15" ry="15" fill="#1a1a1a"/>
  <path d="M 107.53 114.40 A 15.00 15.00 0 0 1 121.00 106.00 L 159.00 106.00 A 15.00 15.00 0 0 1 172.47 114.40 Z" fill="#e4e4e4"/>
  <path d="M 107.53 114.40 L 172.47 114.40 A 15.00 15.00 0 0 1 174.00 121.00 L 174.00 121.00 A 15.00 15.00 0 0 1 159.00 136.00 L 121.00 136.00 A 15.00 15.00 0 0 1 106.00 121.00 L 106.00 121.00 A 15.00 15.00 0 0 1 107.53 114.40 Z" fill="#1a7848"/>
  <path d="M 124.17 136.00 Q 140.00 125.20 155.83 136.00 Z" fill="#16ae81"/>
  {{else}}
  <rect x="106" y="106" width="68" height="36" rx="16" ry="16" fill="#1a1a1a"/>
  <path d="M 107.14 116.08 A 16.00 16.00 0 0 1 122.00 106.00 L 158.00 106.00 A 16.00 16.00 0 0 1 172.86 116.08 Z" fill="#e4e4e4"/>
  <path d="M 107.14 116.08 L 172.86 116.08 A 16.00 16.00 0 0 1 174.00 122.00 L 174.00 126.00 A 16.00 16.00 0 0 1 158.00 142.00 L 122.00 142.00 A 16.00 16.00 0 0 1 106.00 126.00 L 106.00 122.00 A 16.00 16.00 0 0 1 107.14 116.08 Z" fill="#1a7848"/>
  <path d="M 121.00 142.00 Q 140.00 129.04 159.00 142.00 Z" fill="#16ae81"/>
  {{end}}
</svg>
