<svg xmlns="http://www.w3.org/2000/svg" viewBox="0 0 280 210">
  <rect x="0" y="0" width="280" height="210" fill="#4ECBA8"/>
  <rect x="6" y="5" width="268" height="200" rx="26" ry="26" fill="#4ECBA8"/>
  <rect x="22" y="20" width="202" height="155" rx="14" ry="14" fill="#90e5c8"/>
  <path d="M 44 85 Q 63 70 82 85"   stroke="#1a1a1a" stroke-width="7" fill="none" stroke-linecap="round"/>
  <path d="M 163 85 Q 182 70 201 85" stroke="#1a1a1a" stroke-width="7" fill="none" stroke-linecap="round"/>
  <rect x="81" y="101" width="84" height="43" rx="20" ry="20" fill="#1a1a1a"/>
  <path d="M 82.67 113 A 20 20 0 0 1 101 101 L 145 101 A 20 20 0 0 1 163.33 113 Z" fill="#e4e4e4"/>
  <path d="M 82.67 113 L 163.33 113 A 20 20 0 0 1 165 121 L 165 124 A 20 20 0 0 1 145 144 L 101 144 A 20 20 0 0 1 81 124 L 81 121 A 20 20 0 0 1 82.67 113 Z" fill="#1a7848"/>
  <path d="M 99 144 A 24 8 0 0 1 147 144 Z" fill="#16ae81"/>
</svg>
