<svg xmlns="http://www.w3.org/2000/svg" viewBox="0 0 280 210">
  <rect x="0" y="0" width="280" height="210" fill="#4ECBA8"/>
  <rect x="6" y="5" width="268" height="200" rx="26" ry="26" fill="#4ECBA8"/>
  <rect x="12" y="10" width="256" height="188" rx="12" ry="12" fill="#90e5c8"/>
  <rect x="76"  y="68" width="7" height="20" rx="3" ry="3" fill="#1a1a1a"/>
  <rect x="195" y="68" width="7" height="20" rx="3" ry="3" fill="#1a1a1a"/>
  <rect x="106" y="106" width="68" height="24" rx="12" ry="12" fill="#1a1a1a"/>
  <path d="M 107.22 112.72 A 12.00 12.00 0 0 1 118.00 106.00 L 162.00 106.00 A 12.00 12.00 0 0 1 172.78 112.72 Z" fill="#e4e4e4"/>
  <path d="M 107.22 112.72 L 172.78 112.72 A 12.00 12.00 0 0 1 174.00 118.00 L 174.00 118.00 A 12.00 12.00 0 0 1 162.00 130.00 L 118.00 130.00 A 12.00 12.00 0 0 1 106.00 118.00 L 106.00 118.00 A 12.00 12.00 0 0 1 107.22 112.72 Z" fill="#1a7848"/>
  <path d="M 127.33 130.00 Q 140.00 121.36 152.67 130.00 Z" fill="#16ae81"/>
</svg>
