<svg xmlns="http://www.w3.org/2000/svg" viewBox="0 0 280 210">
  <rect x="0" y="0" width="280" height="210" fill="#4ECBA8"/>
  <rect x="6" y="5" width="268" height="200" rx="26" ry="26" fill="#4ECBA8"/>
  <rect x="12" y="10" width="256" height="188" rx="12" ry="12" fill="#90e5c8"/>
  <rect x="76"  y="68" width="7" height="20" rx="3" ry="3" fill="#1a1a1a"/>
  <rect x="195" y="68" width="7" height="20" rx="3" ry="3" fill="#1a1a1a"/>
  <rect x="106" y="106" width="68" height="6" rx="3" ry="3" fill="#1a1a1a"/>
  <path d="M 106.31 107.68 A 3.00 3.00 0 0 1 109.00 106.00 L 171.00 106.00 A 3.00 3.00 0 0 1 173.69 107.68 Z" fill="#e4e4e4"/>
  <path d="M 106.31 107.68 L 173.69 107.68 A 3.00 3.00 0 0 1 174.00 109.00 L 174.00 109.00 A 3.00 3.00 0 0 1 171.00 112.00 L 109.00 112.00 A 3.00 3.00 0 0 1 106.00 109.00 L 106.00 109.00 A 3.00 3.00 0 0 1 106.31 107.68 Z" fill="#1a7848"/>
  <path d="M 136.83 112.00 Q 140.00 109.84 143.17 112.00 Z" fill="#16ae81"/>
</svg>
