<svg xmlns="http://www.w3.org/2000/svg" viewBox="0 0 280 210">
  <rect x="0" y="0" width="280" height="210" fill="#4ECBA8"/>
  <rect x="6" y="5" width="268" height="200" rx="26" ry="26" fill="#4ECBA8"/>
  <rect x="12" y="10" width="256" height="188" rx="12" ry="12" fill="#90e5c8"/>
  <rect x="76"  y="68" width="7" height="20" rx="3" ry="3" fill="#1a1a1a"/>
  <rect x="195" y="68" width="7" height="20" rx="3" ry="3" fill="#1a1a1a"/>
  <rect x="106" y="106" width="68" height="12" rx="6" ry="6" fill="#1a1a1a"/>
  <path d="M 106.61 109.36 A 6.00 6.00 0 0 1 112.00 106.00 L 168.00 106.00 A 6.00 6.00 0 0 1 173.39 109.36 Z" fill="#e4e4e4"/>
  <path d="M 106.61 109.36 L 173.39 109.36 A 6.00 6.00 0 0 1 174.00 112.00 L 174.00 112.00 A 6.00 6.00 0 0 1 168.00 118.00 L 112.00 118.00 A 6.00 6.00 0 0 1 106.00 112.00 L 106.00 112.00 A 6.00 6.00 0 0 1 106.61 109.36 Z" fill="#1a7848"/>
  <path d="M 133.67 118.00 Q 140.00 113.68 146.33 118.00 Z" fill="#16ae81"/>
</svg>
